<?xml version="1.0" encoding="UTF-8"?>
<!-- Generated by Pixelmator Pro 3.6.1 -->
<svg width="350" height="350" viewBox="0 0 350 350" xmlns="http://www.w3.org/2000/svg">
    <g id="svgg">
        <path id="image2vector-2" fill="#141414" fill-rule="evenodd" stroke="none" d="M 342.981995 73.276001 C 332.266724 82.952698 318.679474 88.520599 304.291656 89.339294 C 267.612427 92.475677 230.952026 86.688538 194.222916 87.034363 C 171.915497 85.849701 149.463516 85.1987 127.176178 86.607239 C 98.441963 90.728729 71.269341 105.508423 51.568077 126.772736 C 41.608559 138.506332 34.285538 153.797409 36.761795 169.470596 C 39.127647 189.039276 59.758896 179.132492 71.502129 175.691757 C 79.245407 174.596085 83.695892 168.563538 72.814377 170.238876 C 62.73822 170.79425 55.535812 162.18425 55.248001 152.5 C 54.546577 139.237076 60.88549 125.634796 70.933716 117.08728 C 84.033928 107.232788 98.662857 98.111267 115.627365 97.757782 C 124.266251 98.415924 143.792313 95.789429 146.332001 98.897003 C 131.330261 107.120941 128.573654 125.428787 124.839996 140.5 C 122.300873 153.153305 121.748352 165.359253 118.792999 177.832993 C 114.976593 193.198578 115.009659 209.062393 112.358002 224.667007 C 110.341797 239.774658 109.663193 255.402618 104.511993 269.833008 C 98.132118 280.769501 94.071213 294.660675 81.131973 299.648315 C 68.78833 308.334869 53.397301 306.048218 40.801361 299.05246 C 26.081791 293.515991 16.121403 272.088806 26.420288 258.804871 C 28.004055 254.148682 47.842163 246.206604 33.910358 250.441284 C 21.809978 257.015717 6.876884 264.816315 5.593 280.294006 C 5.76395 289.745514 10.362656 300.194244 18.451 305.580872 C 30.109436 312.691071 44.086037 316.815308 57.807678 313.394226 C 69.325462 311.267426 81.018333 303.821716 89.417 297.497009 C 108.084213 282.02951 121.673264 259.59967 124.164001 235.166992 C 127.840698 220.298264 128.243454 204.888702 130.495026 189.813858 C 131.607803 172.805237 136.982483 156.627167 139.167999 139.807999 C 144.165039 126.306412 142.586426 109.528503 153.639999 98.811005 C 175.581161 98.324554 197.42569 101.180878 219.298996 101.187988 C 224.415817 103.117798 248.549042 99.437531 233.126282 106.388794 C 219.50293 117.962952 217.537186 137.570755 215.490555 154.224075 C 212.219589 182.011398 208.993668 209.909607 202.625 237.166992 C 198.764328 250.019226 194.868088 270.964905 177.932999 270.630249 C 172.136337 272.260986 155.497314 279.338776 158.600006 284.333008 C 177.436844 278.344208 199.006516 289.595459 216.859879 278.384857 C 220.306183 277.568298 236.087524 265.078308 228.699112 266.337402 C 218.541412 272.964447 200.933655 271.678009 192.125717 269.763702 C 208.720215 257.613525 218.807419 238.952545 223.332993 219.223999 C 228.462997 203.525864 228.897583 186.769608 232.624237 170.716003 C 233.758881 154.697495 236.682312 138.960159 238.649994 123.016006 C 239.59375 113.832642 243.754669 99.662903 255.48938 102.538849 C 275.937042 103.242798 296.4198 101.294312 315.890015 94.79599 C 325.85144 90.828705 338.407806 88.415314 344.469818 78.537903 C 345.327362 77.766602 346.12204 71.187561 342.981995 73.276001 Z"/>
    </g>
</svg>
